PathFileType	4	(X/Y/Z)	D:\TRACE\spotREDO_2-26-24\spot_baseline_4-v60.trc
DataRate	CameraRate	NumFrames	NumMarkers	Units	OrigDataRate	OrigDataStartFrame	OrigNumFrames
100.00	100.00	      28	9	mm	100.00	4376	      7000
Frame#	Time	front left toe			Front right toe			aft left toe			aft right toe			Arm			FL body			FR body			AL Body			AR Body			
		X1	Y1	Z1	X2	Y2	Z2	X3	Y3	Z3	X4	Y4	Z4	X5	Y5	Z5	X6	Y6	Z6	X7	Y7	Z7	X8	Y8	Z8	X9	Y9	Z9	

4376	43.750	-192.26759	22.21213	-160.03441	274.32269	20.83668	-94.34241	-290.87396	131.41937	316.89612	214.38133	23.23074	342.15121	100.54780	807.06030	-348.98657	18.83011	546.61102	-334.61581	173.22592	553.37787	-316.36310	-93.95595	558.46313	541.75189	53.78600	560.87720	561.29913	
4377	43.760	-192.28041	22.38435	-159.95917	274.30896	20.62486	-94.46862	-289.88654	138.08386	313.90442	214.54581	23.32630	342.13943	102.32832	807.05560	-349.58966	19.97822	546.49878	-335.41705	174.58932	553.15082	-317.15765	-92.21328	558.62970	541.09772	55.41925	560.85565	560.61707	
4378	43.770	-192.25816	22.50083	-159.93376	274.27176	20.45243	-94.59732	-289.27817	143.62122	309.41843	214.80487	23.10559	342.18280	103.86425	806.85565	-350.32593	20.83205	546.44037	-336.06458	175.41432	552.96820	-318.02011	-90.32919	558.98694	540.71448	57.41327	560.70319	560.38300	
4379	43.780	-192.22673	22.51555	-159.95711	274.19324	20.28568	-94.73018	-286.55740	145.00249	306.28262	214.95003	22.90797	342.16080	105.31886	806.69531	-351.10681	21.87701	546.47308	-336.60260	176.55655	552.82465	-318.60571	-88.74046	558.84534	540.08948	58.90712	560.47559	559.36151	
4380	43.790	-192.19196	22.63573	-160.01566	274.23346	20.18425	-94.74395	-283.89844	143.85460	304.61322	215.03767	22.73683	342.13470	106.25940	806.73102	-351.61218	23.00040	546.79059	-337.13757	177.78891	552.92712	-319.09192	-87.73534	558.69379	539.65637	59.94336	560.46259	558.74707	
4381	43.800	-192.14529	22.67892	-160.17860	274.53278	20.38745	-94.62901	-280.83679	141.68857	303.59366	215.08347	22.58763	342.11032	107.42587	806.93970	-352.01334	24.14127	546.98077	-337.64417	178.77168	553.10541	-319.69208	-86.43363	558.50897	538.99066	61.09501	560.28186	558.23358	
4382	43.810	-192.12065	22.77457	-160.27681	274.46158	20.57343	-94.63534	-278.14041	140.77661	302.35956	215.07213	22.47402	342.16040	108.27202	807.31018	-352.16022	25.18555	547.08887	-338.13324	179.73421	553.41528	-320.25214	-85.73322	558.30383	538.48389	62.01357	560.20496	557.77570	
4383	43.820	-192.08855	22.87471	-160.27631	274.50647	20.42552	-94.68458	-275.15192	139.97781	300.73914	215.03267	22.46264	342.12875	109.03539	807.65790	-352.51782	26.15138	547.40741	-338.67941	180.82208	553.51813	-320.62793	-84.66019	558.17670	538.06183	63.14951	559.89246	557.40845	
4384	43.830	-192.06754	22.94410	-160.32043	274.69592	20.42417	-94.63321	-273.80487	140.18367	298.65787	214.98932	22.45683	342.18756	110.05973	807.68207	-352.95459	27.08536	547.42944	-338.95142	181.43642	553.67407	-321.13495	-83.75190	558.13300	537.70715	64.23499	559.82593	557.41077	
4385	43.840	-192.04753	22.96591	-160.30983	274.80722	20.30996	-94.62545	-272.42801	140.46440	296.41287	215.05954	22.37520	342.11749	111.14050	807.52203	-353.07455	27.86292	547.43549	-339.20313	182.35721	553.63965	-321.29626	-83.05833	557.98663	537.36450	64.93962	559.76544	557.07520	
4386	43.850	-191.96777	22.97503	-160.31204	274.98776	20.20683	-94.76178	-270.45303	140.55739	294.49341	215.12917	22.33223	342.10822	112.08032	807.41321	-353.44568	28.60999	547.45764	-339.49570	183.04192	553.64758	-321.71353	-82.11070	558.09332	537.14789	65.45828	559.70953	556.50415	
4387	43.860	-191.77238	23.19639	-160.12193	275.03992	20.27308	-94.57523	-268.51959	139.87897	292.91721	215.16432	22.34879	342.10968	113.26197	807.55884	-353.66388	29.04618	547.53021	-339.75851	183.80855	553.54688	-321.82761	-81.34445	558.20679	536.97839	66.15698	559.71130	556.18896	
4388	43.870	-191.76447	23.22010	-160.14116	275.17923	20.05703	-94.76075	-265.32693	138.19453	291.28360	215.21509	22.36671	342.11560	113.85965	807.47632	-353.82376	29.85645	547.46143	-339.96457	184.60005	553.40747	-321.98724	-80.84160	558.45880	536.73761	66.88364	559.76782	555.90149	
4389	43.880	-191.77191	22.95786	-160.30888	275.18225	20.00383	-94.74106	-263.01538	135.67935	288.64301	215.23135	22.39461	342.11151	114.36636	807.33929	-353.97827	30.37063	547.56281	-340.17010	185.19615	553.26532	-322.14487	-80.11162	558.44879	536.60156	67.44650	559.93384	555.73822	
4390	43.890	-191.67021	23.17688	-160.12032	275.24930	19.93517	-94.72092	-260.67990	129.65350	286.16711	215.22688	22.40828	342.08801	114.95133	807.29022	-354.25000	30.83170	547.56628	-340.13431	185.44406	553.15601	-322.24066	-79.53157	558.62488	536.56989	68.36929	559.96216	556.05554	
4391	43.900	-191.87506	23.03246	-160.25639	275.17566	19.84296	-94.72911	-259.14523	121.90723	283.38547	215.36113	22.32649	342.09879	115.37532	807.27490	-354.40363	31.31598	547.57288	-340.11148	185.79037	553.12720	-322.33865	-79.10909	558.82648	536.55011	68.85274	559.95416	555.94611	
4392	43.910	-191.84444	23.04017	-160.28105	275.22772	19.89946	-94.77162	-256.73724	111.81616	281.04626	214.81725	22.10164	341.96301	115.87952	807.42511	-354.39270	31.75431	547.65369	-340.09970	186.02641	553.19452	-322.41925	-78.59428	558.86078	536.50244	69.48178	559.88824	555.94702	
4393	43.920	-191.75246	23.04388	-160.29335	275.26376	20.01171	-94.77848	-254.86948	99.99493	280.04446	214.86060	22.09604	342.04926	116.21628	807.78876	-354.17807	32.03677	547.95551	-340.08710	186.56693	553.55994	-322.21729	-78.23875	558.72882	536.51587	69.80347	559.79016	555.95166	
4394	43.930	-191.71100	23.01647	-160.26654	275.21808	20.15317	-94.80733	-253.57045	87.86150	279.26923	214.90149	22.05785	342.05713	116.26522	808.04779	-354.03696	32.26766	548.21808	-340.01715	186.82222	554.00323	-322.31049	-77.87180	558.28003	536.54840	69.94923	559.57941	556.05219	
4395	43.940	-191.64575	22.97345	-160.25024	275.10605	20.28337	-94.64748	-251.88220	76.56123	278.97647	214.98862	22.02126	342.13937	116.64050	808.41077	-353.65948	32.59052	548.49969	-340.01056	187.12984	554.22876	-322.12943	-77.58957	557.87048	536.62341	69.90919	559.33221	555.98877	
4396	43.950	-191.51102	22.91264	-160.29456	275.03412	20.30188	-94.62697	-250.97150	65.62237	278.65778	215.01183	21.99835	342.16318	117.12733	808.57465	-352.98444	32.92224	548.78412	-339.86032	187.47722	554.51697	-321.99249	-77.43752	557.55865	536.77106	69.96458	558.97681	556.09503	
4397	43.960	-191.46968	22.93598	-160.28920	275.21552	20.15899	-94.76099	-250.04880	55.16831	278.52173	215.06042	21.94998	342.20432	117.37587	808.68536	-352.73065	33.12471	548.88312	-339.79166	187.82259	554.52698	-321.73749	-77.33376	557.35626	537.00061	70.02139	558.79956	556.19611	
4398	43.970	-191.49997	22.97678	-160.30920	275.11182	20.27785	-94.58704	-249.59669	45.13008	277.70184	214.99701	21.95559	342.23483	117.44113	808.64911	-352.66946	33.22532	548.90607	-339.64221	188.04823	554.39685	-321.37888	-77.21170	557.33795	537.20935	70.16106	558.75031	556.41437	
4399	43.980	-191.60931	23.02322	-160.27211	275.11154	20.06155	-94.74536	-249.12408	35.07127	277.03860	214.98610	21.93259	342.23993	117.43913	808.51410	-352.58719	33.39483	548.69843	-339.42743	188.11227	554.19073	-321.17514	-77.25481	557.36188	537.44055	70.22102	558.84918	556.66833	
4400	43.990	-191.59677	23.02176	-160.27332	275.16406	20.00996	-94.72688	-248.81203	24.77546	276.63544	215.00789	21.95308	342.21542	117.49207	808.35205	-352.51913	33.39828	548.53003	-339.24951	188.07903	554.11804	-321.08514	-77.23391	557.38452	537.62421	70.29855	558.88843	556.87329	
4401	44.000	-191.59543	22.93443	-160.26886	275.24191	19.97807	-94.64674	-249.55400	22.84448	274.28561	215.45569	22.08081	342.30511	117.48582	808.20880	-352.41391	33.39452	548.23798	-338.72604	187.92929	553.94055	-320.93036	-76.88397	557.86249	537.91376	70.65340	559.07269	557.41241	
4402	44.010	-191.52702	23.21121	-160.15462	275.00436	19.48426	-94.81148	-250.97829	24.02482	276.34311	214.99767	22.46942	342.21002	117.49433	808.04480	-352.33661	33.20607	547.81708	-338.25290	187.52263	553.20172	-320.81741	-76.31013	559.58826	538.36475	71.22207	560.07800	557.48718	
4403	44.020	-191.75710	23.43407	-160.06396	275.12680	19.63096	-94.72600	-249.91846	24.67090	277.80765	215.17799	22.39586	342.18005	117.91924	807.53296	-352.36096	32.94204	547.40649	-337.78043	186.91983	553.18250	-320.81818	-76.07553	560.48431	538.81165	71.91664	561.25739	558.21191	
